<svg height="512pt" viewBox="-86 0 512 512" width="512pt" xmlns="http://www.w3.org/2000/svg"><path d="m51.527344 64h236.945312v109.972656h-236.945312zm0 0" fill="#af602d"/><path d="m257.566406 64h30.902344v109.972656h-30.902344zm0 0" fill="#854f2d"/><path d="m295.386719 92.714844h-250.773438c-11.542969 0-20.898437-9.355469-20.898437-20.898438v-50.917968c0-11.542969 9.355468-20.898438 20.898437-20.898438h250.773438c11.542969 0 20.898437 9.355469 20.898437 20.898438v50.917968c0 11.542969-9.355468 20.898438-20.898437 20.898438zm0 0" fill="#ffd740"/><path d="m295.386719 0h-30.90625c11.542969 0 20.898437 9.355469 20.898437 20.898438v50.917968c0 11.542969-9.355468 20.902344-20.898437 20.902344h30.90625c11.542969 0 20.898437-9.359375 20.898437-20.902344v-50.917968c0-11.542969-9.355468-20.898438-20.898437-20.898438zm0 0" fill="#ffc400"/><path d="m298.796875 512h-257.59375c-22.660156 0-41.203125-18.542969-41.203125-41.203125v-284.335937c0-22.664063 18.542969-41.203126 41.203125-41.203126h257.59375c22.660156 0 41.203125 18.539063 41.203125 41.203126v284.335937c0 22.660156-18.542969 41.203125-41.203125 41.203125zm0 0" fill="#d97c41"/><path d="m298.792969 145.257812h-30.910157c22.664063 0 41.207032 18.539063 41.207032 41.199219v284.339844c0 22.664063-18.542969 41.203125-41.207032 41.203125h30.910157c22.664062 0 41.207031-18.539062 41.207031-41.203125v-284.339844c0-22.660156-18.542969-41.199219-41.207031-41.199219zm0 0" fill="#af602d"/><path d="m0 212.730469h340v230.761719h-340zm0 0" fill="#ffd740"/><path d="m309.089844 212.730469h30.910156v230.761719h-30.910156zm0 0" fill="#ffc400"/><path d="m170 251.363281-126.710938 77.265625 126.710938 77.261719 126.710938-77.261719zm0 0" fill="#ce0028"/><path d="m300.617188 322.226562-126.710938-77.265624c-2.398438-1.464844-5.414062-1.464844-7.8125 0l-126.710938 77.265624c-2.234374 1.359376-3.59375 3.785157-3.59375 6.402344 0 2.613282 1.359376 5.042969 3.59375 6.402344l126.710938 77.265625c1.199219.730469 2.554688 1.09375 3.90625 1.09375s2.707031-.363281 3.90625-1.09375l126.710938-77.265625c2.234374-1.359375 3.59375-3.789062 3.59375-6.402344 0-2.617187-1.359376-5.042968-3.59375-6.402344zm-130.617188 74.878907-112.304688-68.476563 112.304688-68.480468 112.304688 68.480468zm0 0" fill="#fff7e6"/></svg>