<svg id="Capa_1" enable-background="new 0 0 512 512" height="512" viewBox="0 0 512 512" width="512" xmlns="http://www.w3.org/2000/svg"><g><path d="m341.901 348.699c-12.301 9.3-32.701 21.601-65.7 40.801-16.201 9.3-35.801 20.4-58.001 33.6-15.3 15.599-2.401 27.9 7.8 27.9h24.6c71.7 0 136.3-7.2 182.5-31.5z" fill="#e43852"/><g fill="#fe5570"><path d="m505.101 220.499-146.7 74.7c2.401 5.4 3.6 11.1 3.6 17.401 0 14.101-1.8 22.601-20.099 36.099 16.606 38.572 53.343 65.192 91.199 70.801 57.361-29.785 78.899-84.909 78.899-149.5 0-17.1-2.401-33.9-6.899-49.501z"/><path d="m117.48 180h-72.48c-8.291 0-15-6.709-15-15s6.709-15 15-15h72.48c8.291 0 15 6.709 15 15s-6.709 15-15 15z"/><path d="m60 90c-16.538 0-30-13.462-30-30s13.462-30 30-30h226c8.291 0 15-6.709 15-15s-6.709-15-15-15h-226c-33.091 0-60 26.909-60 60s26.909 60 60 60h60l-30-30z"/><path d="m487.372 180c-30.769-52.947-88.275-90-155.372-90h-60v90 90h47.401c17.399 0 32.399 10.199 39 25.199 42.145 12.883 93.552.551 126.301-39 8.699-10.8 15.599-22.8 20.4-35.7-3.999-14.342-10.319-27.748-17.73-40.499z"/></g><path d="m319.401 270c17.399 0 32.399 10.199 39 25.199 42.145 12.883 93.552.551 126.301-39 8.699-10.8 15.599-22.8 20.4-35.7-3.997-14.343-10.318-27.748-17.728-40.499h-215.374v90z" fill="#e43852"/><path d="m272 90h-182v15c0 27.008 6.667 52.462 18.246 75 27.394 53.32 83.861 90 147.754 90h16c49.501 0 90-40.501 90-90 0-49.501-40.499-90-90-90z" fill="#fe8598"/><path d="m256 270h16c49.501 0 90-40.501 90-90h-253.754c27.395 53.32 83.861 90 147.754 90z" fill="#fe5570"/><path d="m166 361h-30c-8.291 0-15 6.709-15 15 0 24.62 12.085 46.318 30.463 60-18.378 13.682-30.463 36.38-30.463 61 0 8.291 6.709 15 15 15h30c41.353 0 75-34.647 75-76s-33.647-75-75-75z" fill="#fe5570"/><circle cx="226" cy="165" fill="#e43852" r="15"/></g></svg>