<svg height="512" viewBox="0 0 58 58" width="512" xmlns="http://www.w3.org/2000/svg"><g id="Page-1" fill="none" fill-rule="evenodd"><g id="039---Frozen-Veg" fill-rule="nonzero"><path id="Shape" d="m19.86 28.02c-.308004 2.1246707-.8651752 4.2056717-1.66 6.2-.1748554.4441462-.013871.9500333.3855085 1.2114453s.9274181.2065218 1.2644915-.1314453l9.15-9.167 3.184 2.551-9.484 9.466c-.3379671.3370734-.3928573.865112-.1314453 1.2644915s.7672991.5603639 1.2114453.3855085c1.9943283-.7948248 4.0753293-1.351996 6.2-1.66.26.36 1.56.7 1.88 1.03h.01c-.1688065.4414856-.3123716.8922132-.43 1.35-.15.59-1.27 1.2-1.34 1.83-2.7840969.8360513-5.3235254 2.3356867-7.4 4.37l-10.71 10.71c-.3990774.3780814-.9320453.5820736-1.4815753.5670694-.54952995-.0150043-1.07057258-.2477749-1.4484247-.6470694l-4.21-4.2-4.2-4.21c-.3992945-.3778521-.63206512-.8988947-.64706935-1.4484247s.18898794-1.0824979.56706935-1.4815753l10.71-10.71c2.9954683-3.1596885 4.8532316-7.2270644 5.28-11.56z" fill="#24ae5f"/><path id="Shape" d="m58 44c0 7.7319865-6.2680135 14-14 14s-14-6.2680135-14-14c-.0021777-.551578.031225-1.1027222.1-1.65.0709352-.61712.1845406-1.228584.34-1.83.1176284-.4577868.2611935-.9085144.43-1.35 2.3370685-6.3709919 8.9085697-10.1467795 15.5896366-8.9573378 6.681067 1.1894417 11.5456776 7.0012197 11.5403634 13.7873378z" fill="#81ccb8"/><path id="Shape" d="m52.851 45.005-2.751 1.361-4.1-2.366 4.1-2.366 2.751 1.366c.4944616.2405173 1.090346.0367057 1.3339366-.4562491.2435906-.4929549.0434923-1.0900964-.4479366-1.3367509l-1.556-.77.979-.566c.3119508-.1773616.5049532-.5082732.5057421-.8671183s-.1907567-.6906021-.5019247-.8693336c-.3111679-.1787314-.694247-.1770325-1.0038174.0044519l-.98.565.112-1.733c.0169874-.2646893-.0718754-.5252847-.247037-.7244514-.1751617-.1991667-.422272-.3205877-.686963-.3375486-.2653983-.0200162-.5276626.0677813-.7275188.2435493-.1998562.1757681-.3204338.4246696-.3344812.6904507l-.196 3.057-4.1 2.368v-4.733l2.555-1.7c.297245-.1982824.4661283-.5400812.4430332-.8966441s-.2346599-.6737196-.555-.832c-.3203401-.1582805-.7007882-.1336383-.9980332.0646441l-1.445.961v-1.132c0-.5522847-.4477153-1-1-1s-1 .4477153-1 1v1.132l-1.445-.964c-.297245-.1982824-.6776931-.2229246-.9980331-.0646441-.3203401.1582805-.5319049.4754371-.555.832s.1457881.6983617.4430331.8966441l2.555 1.703v4.733l-4.1-2.368-.2-3.063c-.0353462-.5522847-.5117153-.9713462-1.064-.936s-.9713462.5117153-.936 1.064l.12 1.735-.98-.565c-.3095704-.1814844-.6926495-.1831833-1.0038174-.0044519-.311168.1787315-.5027136.5104885-.5019247.8693336s.1937913.6897567.5057421.8671183l.979.566-1.556.77c-.4962278.2446621-.7001621.8452722-.4555 1.3415s.8452722.7001621 1.3415.4555l2.751-1.366 4.1 2.366-4.1 2.366-2.752-1.361c-.4944616-.2405173-1.090346-.0367057-1.3339366.4562491-.2435906.4929549-.0434923 1.0900964.4479366 1.3367509l1.556.77-.979.566c-.3119508.1773616-.5049532.5082732-.5057421.8671183s.1907567.6906021.5019247.8693336c.3111679.1787314.694247.1770325 1.0038174-.0044519l.98-.565-.112 1.733c-.0169874.2646893.0718754.5252847.247037.7244514.1751617.1991667.422272.3205877.686963.3375486h.065c.5282269.0010828.9661945-.4088549 1-.936l.2-3.063 4.094-2.365v4.733l-2.555 1.7c-.4595009.3065181-.583518.9274991-.2769999 1.387.306518.4595009.927499.583518 1.3869999.277l1.445-.961v1.132c0 .5522847.4477153 1 1 1s1-.4477153 1-1v-1.132l1.445.964c.4595009.306518 1.080482.1825009 1.387-.277s.1825009-1.080482-.277-1.387l-2.555-1.703v-4.733l4.1 2.368.2 3.063c.0338055.5271451.4717731.9370828 1 .936h.065c.264691-.0169609.5118013-.1383819.686963-.3375486.1751616-.1991667.2640244-.4597621.247037-.7244514l-.119-1.737.98.565c.3095704.1814844.6926495.1831833 1.0038174.0044519.311168-.1787315.5027136-.5104885.5019247-.8693336s-.1937913-.6897567-.5057421-.8671183l-.979-.566 1.556-.77c.4914289-.2466545.6915272-.843796.4479366-1.3367509-.2435906-.4929548-.839475-.6967664-1.3339366-.4562491z" fill="#fff"/><path id="Shape" d="m54.49 29.9c2.1432441 2.1536473 2.9876418 5.280201 2.22 8.22-2.3795897-5.1343792-7.6162001-8.3312686-13.2705353-8.1015065s-10.6143001 3.840986-12.5694647 9.1515065h-.01c-.317704-.3217401-.6117996-.6659656-.88-1.03-1.1898935-1.5439698-1.8492888-3.4309628-1.88-5.38-.0336472-1.7680567.6436311-3.4756628 1.88-4.74-1.2614041 1.2334875-2.9661323 1.9074498-4.73 1.87-1.9516929-.0236084-3.8430457-.679792-5.39-1.87-1.4732583-1.0954427-2.6152616-2.5765863-3.3-4.28v-.01c-.974842-2.2250104-.8146778-4.7839115.43-6.87-.4380057-.2969096-.8465409-.6351232-1.22-1.01-3.3275492-3.4182788-3.2919572-8.87558853.0798942-12.25017461s8.8291305-3.41460225 12.2501058-.08982539c.2460813.24884289.476522.5126808.69.79.1384002-1.06965205.6189729-2.06587573 1.37-2.84 2.27-2.27 6.38-1.84 9.19.96 1.0813969 1.07989256 1.8458053 2.4357664 2.21 3.92 2.3-2.08 6.26-1.62 8.99 1.11s3.19 6.69 1.11 8.99c1.4842336.3641947 2.8401074 1.1286031 3.92 2.21 2.8 2.81 3.23 6.92.96 9.19-.7741243.7510271-1.7703479 1.2315998-2.84 1.37.2773192.213478.5411571.4439187.79.69z" fill="#4fba6f"/><path id="Shape" d="m28.11 32.75-.01.01" fill="#4fba6f"/><g fill="#4c8056"><path id="Shape" d="m29.555 13.992c-.3651989-.0004767-.7010953-.1999966-.8762196-.520468-.1751244-.3204714-.1616231-.7109228.0352196-1.018532.6070105-.9594353.8218355-2.1155518.6-3.229-.0714531-.35029892.0494037-.71210826.3170449-.94913794s.6414057-.31326925.9805-.2.592002.39883902.6634551.74913794c.3211689 1.6217965.0053025 3.3049847-.882 4.7-.1805177.2894648-.4968651.4661361-.838.468z"/><path id="Shape" d="m33.148 22.288h-.032c-.5520077-.017399-.9853949-.4789922-.968-1.031.0392545-1.7062443-.7314542-3.33037-2.078-4.379-.432288-.3378959-.5115807-.9610053-.1776964-1.3963992s.9562338-.5204449 1.3946964-.1906008c1.8542077 1.4433362 2.9148122 3.6799171 2.859 6.029-.0172554.538974-.4587505.9671976-.998.968z"/><path id="Shape" d="m37.146 16.06c-.4469445.0011677-.8403946-.2943889-.963763-.7239713-.1233684-.4295823.0533043-.8888681.432763-1.1250287 1.2489752-.7890225 2.0931577-2.0821219 2.313-3.543.0395093-.3636852.2744548-.67677058.6126051-.81634953s.7255295-.08337175 1.0100658.14655655c.2845362.22992828.4208116.59687638.3553291.95679298-.3057006 2.0424825-1.4855812 3.8506349-3.232 4.953-.1581781.0993692-.3411991.1520571-.528.152z"/><path id="Shape" d="m21.988 14.164c-.457945.0000121-.8573801-.3110456-.9695591-.7550383s.0915675-.9074499.4945591-1.1249617c1.3788271-.7371047 2.9810968-.9397028 4.5-.569.5359923.1339291.8619291.6770077.728 1.213s-.6770077.8619291-1.213.728c-1.0364167-.2532127-2.1298071-.1154263-3.071.387-.1438876.0785833-.305054.1201636-.469.121z"/><path id="Shape" d="m42.939 21.855c-.3628449-.0009505-.6967062-.1983729-.8723731-.5158606-.1756668-.3174877-.1655737-.7052211.0263731-1.0131394 1.1029062-1.7456021 2.9101909-2.9255196 4.952-3.233.5467619-.0792528 1.0542471.2997381 1.1335.8465.0792528.5467619-.2997381 1.0542471-.8465 1.1335-1.4609706.2195892-2.754355 1.0633546-3.544 2.312-.1829273.2926832-.503854.4703459-.849.47z"/></g><path id="Shape" d="m8.421 44.867c-.4043959-.0000863-.76893405-.2437275-.92367798-.6173454-.15474393-.373618-.06922994-.8036603.21667798-1.0896546l6.427-6.427c.3923789-.3789722 1.0160848-.3735524 1.4018186.0121814s.3911536 1.0094397.0121814 1.4018186l-6.427 6.427c-.18749273.1875494-.44180519.2929434-.707.293z" fill="#fff"/><path id="Shape" d="m4.851 48.437c-.4043959-.0000863-.76893405-.2437275-.92367798-.6173454-.15474393-.373618-.06922994-.8036603.21667798-1.0896546l.713-.714c.39237889-.3789722 1.01608478-.3735524 1.40181858.0121814.38573379.3857338.39115363 1.0094397.01218142 1.4018186l-.713.714c-.18749273.1875494-.44180519.2929434-.707.293z" fill="#fff"/></g></g></svg>