<svg id="icons" enable-background="new 0 0 64 64" height="512" viewBox="0 0 64 64" width="512" xmlns="http://www.w3.org/2000/svg"><path d="m31.995 13h-11.99v16h11.99 12v-16z" fill="#e6e9ed"/><path d="m34.995 1c.55 0 1 .45 1 1v2c0 .55-.45 1-1 1h-6c-.55 0-1-.45-1-1v-2c0-.55.45-1 1-1z" fill="#656d78"/><path d="m20.005 36c0-1.66 1.34-3 3-3-1.66 0-3-1.34-3-3v-1h11.99 12v1c0 1.66-1.34 3-3 3 1.66 0 3 1.34 3 3v2 4 4 11c0 3.32-2.68 6-6 6h-11.99c-3.31 0-6-2.68-6-6v-11-4-4z" fill="#ffce54"/><path d="m43.995 13h-12-11.99v-1c0-1.66 1.34-3 3-3h3.99c1.109 0 2-.89 2-2v-2h6v2c0 1.1.9 2 2 2h4c1.66 0 3 1.34 3 3z" fill="#ffce54"/><path d="m30.505 18.4c.03-1.03.631-1.92 1.49-2.4.859.48 1.46 1.37 1.49 2.4.01.03.01.07.01.1 0 1.07-.609 2-1.5 2.5-.891-.5-1.5-1.43-1.5-2.5 0-.03 0-.07.01-.1z" fill="#ffce54"/><path d="m33.495 23.5c0-1.07-.609-2-1.5-2.5.88.52 1.99.58 2.92.05.03-.02.061-.03.08-.05.88.55 1.34 1.51 1.33 2.5-.859.51-1.92.58-2.83.09h-.01c.01-.029.01-.061.01-.09z" fill="#edab37"/><path d="m34.915 21.05c-.93.53-2.04.47-2.92-.05.891-.5 1.5-1.43 1.5-2.5 0-.03 0-.07-.01-.1h.01c.91-.48 1.98-.41 2.83.1.01.99-.45 1.95-1.33 2.5-.019.02-.05.03-.08.05z" fill="#f6bb42"/><path d="m30.495 18.5c0 1.07.609 2 1.5 2.5-.88-.52-1.98-.59-2.91-.05-.029.02-.061.04-.09.06v-.01c-.87-.55-1.34-1.51-1.33-2.5.859-.51 1.92-.58 2.83-.1h.01c-.01.03-.01.07-.01.1z" fill="#edab37"/><path d="m29.085 20.95c.93-.54 2.03-.47 2.91.05-.891.5-1.5 1.43-1.5 2.5 0 .029 0 .07.01.1h-.01c-.91.48-1.971.4-2.83-.1-.01-1 .46-1.95 1.33-2.49.029-.02.061-.04.09-.06z" fill="#f6bb42"/><path d="m30.495 23.5c0-1.07.609-2 1.5-2.5.891.5 1.5 1.43 1.5 2.5 0 .029 0 .061-.01.09-.03 1.03-.631 1.92-1.49 2.41-.859-.48-1.46-1.37-1.49-2.4-.01-.03-.01-.071-.01-.1z" fill="#ffce54"/><g fill="#f6bb42"><path d="m43.995 40v-1.998c-.001 0-.002-.001-.003-.001h-1.994c-.553 0-1 .447-1 1s.447 1 1 1h1.994c.001 0 .002-.001.003-.001z"/><path d="m43.995 44v-1.998c-.001 0-.002-.001-.003-.001h-1.994c-.553 0-1 .447-1 1s.447 1 1 1h1.994c.001 0 .002-.001.003-.001z"/><path d="m43.995 48v-1.998c-.001 0-.002-.001-.003-.001h-1.994c-.553 0-1 .447-1 1s.447 1 1 1h1.994c.001 0 .002-.001.003-.001z"/><path d="m20.005 46.002v1.998c.001 0 .002.001.003.001h1.994c.553 0 1-.447 1-1s-.447-1-1-1h-1.994c-.001 0-.002.001-.003.001z"/><path d="m20.005 42.002v1.998c.001 0 .002.001.003.001h1.994c.553 0 1-.447 1-1s-.447-1-1-1h-1.994c-.001 0-.002.001-.003.001z"/><path d="m20.005 38.002v1.998c.001 0 .002.001.003.001h1.994c.553 0 1-.447 1-1s-.447-1-1-1h-1.994c-.001 0-.002.001-.003.001z"/></g></svg>