<svg height="512pt" viewBox="-56 0 512 512.00003" width="512pt" xmlns="http://www.w3.org/2000/svg"><path d="m399.183594 512h-345.28125c-28.859375.003906-52.414063-23.09375-52.964844-51.949219l1.003906-221.707031 35.3125-203.035156h326.621094l35.308594 203.035156zm0 0" fill="#d9d9d9"/><path d="m1.941406 459.035156h282.484375v-220.691406h-282.484375l-1.941406 172.21875zm0 0" fill="#6b9777"/><path d="m275.597656 512v-273.65625l35.308594-203.035156h26.484375v423.726562zm0 0" fill="#cdcdcd"/><path d="m37.253906 0h308.964844v35.308594h-308.964844zm0 0" fill="#b9b9b9"/><path d="m196.148438 114.757812-26.480469-8.828124-26.484375 8.828124v-114.757812h52.964844zm0 0" fill="#70400e"/><path d="m143.183594 0h52.964844v35.308594h-52.964844zm0 0" fill="#834b10"/><path d="m72.90625 296.160156c19.640625-20.011718 51.78125-20.316406 71.792969-.675781l36.242187 35.5625c20.011719 19.640625 20.3125 51.78125.675782 71.792969-19.636719 20.011718-51.78125 20.316406-71.792969.675781l-36.242188-35.5625c-20.011719-19.636719-20.3125-51.78125-.675781-71.792969zm0 0" fill="#834b10"/><path d="m187.128906 324.742188-36.246094-35.566407c-11.113281-10.964843-26.109374-17.09375-41.722656-17.054687h-.582031c-15.789063.109375-30.878906 6.519531-41.921875 17.804687-23.003906 23.511719-22.648438 61.203125.796875 84.277344l36.246094 35.546875c11.109375 10.972656 26.105469 17.105469 41.71875 17.0625h.574219c32.914062-.316406 59.34375-27.257812 59.023437-60.171875-.148437-15.796875-6.566406-30.886719-17.835937-41.953125zm-78.371094-34.96875h.402344c10.988282-.023438 21.542969 4.289062 29.363282 12.007812l36.238281 35.554688c11.988281 11.800781 15.785156 29.617187 9.648437 45.277343-9.796875-23.449219-30.921875-40.25-55.976562-44.515625-19.214844-3.140625-35.410156-16.050781-42.753906-34.085937l-2.171876-5.292969c7.195313-5.691406 16.074219-8.835938 25.25-8.945312zm37.011719 119.4375h-.40625c-10.984375.042968-21.535156-4.261719-29.359375-11.96875l-36.246094-35.550782c-12.53125-12.382812-15.980468-31.277344-8.632812-47.289062 10.261719 21.824218 30.605469 37.203125 54.402344 41.121094 21.433594 3.640624 38.875 19.253906 44.855468 40.15625l1.164063 4.105468c-7.273437 5.972656-16.363281 9.300782-25.777344 9.425782zm0 0" fill="#70400e"/><g fill="#834b10"><path d="m231.460938 194.207031h17.652343v17.65625h-17.652343zm0 0"/><path d="m196.148438 194.207031h17.65625v17.65625h-17.65625zm0 0"/><path d="m160.839844 194.207031h17.652344v17.65625h-17.652344zm0 0"/></g><path d="m275.597656 512 61.792969-52.964844 61.792969 52.964844zm0 0" fill="#a8a8a8"/><path d="m337.390625 52.964844v406.070312l61.792969 52.964844v-273.65625l-35.308594-203.035156h-26.484375zm0 0" fill="#b9b9b9"/><path d="m372.699219 26.484375c0 14.625-11.855469 26.480469-26.480469 26.480469s-26.484375-11.855469-26.484375-26.480469c0-14.628906 11.859375-26.484375 26.484375-26.484375s26.480469 11.855469 26.480469 26.484375zm0 0" fill="#a8a8a8"/></svg>