<svg height="512pt" viewBox="-14 0 512 512.00141" width="512pt" xmlns="http://www.w3.org/2000/svg"><g fill="#00d7df"><path d="m274.6875 110.453125c-2.621094-12.441406-10.414062-23.167969-21.390625-29.4375-10.972656-6.269531-24.171875-7.53125-36.21875-3.46875l-9.660156-28.636719c20.222656-6.824218 42.410156-4.683594 60.871093 5.863282 18.464844 10.546874 31.574219 28.570312 35.972657 49.453124zm0 0"/><path d="m318.710938 101.210938c-5.273438-25.035157-20.976563-46.636719-43.09375-59.269532-22.113282-12.632812-48.699219-15.1875-72.941407-7.011718l-9.65625-28.636719c32.414063-10.933594 67.984375-7.503907 97.589844 9.40625 29.601563 16.910156 50.625 45.808593 57.675781 79.28125zm0 0"/><path d="m231.28125 119.566406-9.234375-27.355468c7.824219-2.640626 16.410156-1.8125 23.5625 2.269531 7.148437 4.082031 12.222656 11.058593 13.921875 19.140625zm0 0"/><path d="m274.6875 110.453125c-2.621094-12.441406-10.414062-23.167969-21.390625-29.4375-10.972656-6.269531-24.171875-7.53125-36.21875-3.46875l-9.660156-28.636719c20.222656-6.824218 42.410156-4.683594 60.871093 5.863282 18.464844 10.546874 31.574219 28.570312 35.972657 49.453124zm0 0"/></g><path d="m89.960938 24.136719c-3.605469 0-7.109376.589843-10.414063 1.726562-5.300781-3.75-11.710937-5.859375-18.464844-5.859375-12.074219 0-22.695312 6.769532-28.125 16.796875-14.933593 2.679688-26.304687 15.769531-26.304687 31.460938 0 7 2.222656 13.644531 6.425781 19.226562l1.910156 2.53125 39.21875 20.296875 47.910157-8.339844 19.808593-42.804687v-3.070313c0-17.625-14.339843-31.964843-31.964843-31.964843zm0 0" fill="#fa235e"/><path d="m131.410156 512h-48.195312v-30.117188h48.195312c8.234375 0 14.9375-6.699218 14.9375-14.933593v-48.195313h30.113282v48.195313c0 24.84375-20.210938 45.050781-45.050782 45.050781zm0 0" fill="#ffda2d"/><path d="m178.949219 512h-48.199219v-30.117188h48.199219c8.234375 0 14.933593-6.699218 14.933593-14.933593v-75.136719h30.117188v75.136719c0 24.84375-20.210938 45.050781-45.050781 45.050781zm0 0" fill="#fdbf00"/><path d="m193.882812 391.8125v75.136719c0 4.730469-2.214843 8.941406-5.65625 11.679687v32.40625c20.40625-4.289062 35.773438-22.425781 35.773438-44.085937v-75.136719zm0 0" fill="#f6a313"/><path d="m64.902344 207.507812h-8.980469c-10.472656 0-19.964844-5.347656-25.386719-14.308593-5.421875-8.960938-5.757812-19.851563-.894531-29.128907l4.867187-9.300781 30.394532 4.785157zm0 0" fill="#fa235e"/><path d="m34.507812 154.769531-34.507812-20.253906 58.1875-27.050781 5.59375 59.070312zm0 0" fill="#fdbf00"/><path d="m342.027344 451.601562 26.265625-55.210937c14.046875-29.527344 6.207031-64.6875-19.074219-85.507813-8.710938-7.171874-16.859375-11.6875-25.671875-13.886718 2.453125 7.164062 3.210937 14.890625 2.085937 22.503906-1.9375 13.125-9.324218 24.953125-20.265624 32.457031l-25.691407 17.617188-.617187.34375-121.535156 67.519531-66.53125-66.53125c-26.207032-26.207031-41.238282-61.816406-41.238282-97.6875v-149.886719c0-20.652343 16.742188-37.394531 37.394532-37.394531 22.453124 0 42.078124 15.175781 47.730468 36.90625l20.171875 77.550781c7.113281 27.355469 31.820313 46.457031 60.082031 46.457031h17.375c1.800782-30.515624 14.453126-59.023437 36.082032-80.964843 23.386718-23.71875 54.59375-37.058594 87.875-37.5625.644531-.011719 1.289062-.015625 1.929687-.015625 68.5625 0 124.945313 55.214844 126.101563 123.964844.183594 10.785156-1.007813 21.546874-3.542969 31.980468l-14.417969 59.410156-14.824218-59.3125c-9.914063-39.660156-45.882813-67.664062-87.472657-68.097656-5.589843-.070312-10.5.855469-14.78125 2.289063 14.664063 3.816406 32.164063 11.710937 50 27.375 21.210938 18.621093 33.761719 44.789062 35.339844 73.679687 1.542969 28.28125-7.542969 55.917969-25.578125 77.816406-5.382812 6.539063-11.539062 12.421876-18.292969 17.492188zm0 0" fill="#e5f3fb"/><path d="m484.5 252.277344c-1.160156-68.75-57.542969-123.964844-126.105469-123.964844-.640625 0-1.285156.003906-1.929687.015625-33.28125.5-64.488282 13.839844-87.875 37.5625-21.628906 21.9375-34.28125 50.449219-36.078125 80.960937h-17.378907c-9.542968 0-18.679687-2.183593-26.875-6.125v179.636719l90.800782-50.445312.617187-.34375 25.691407-17.617188c10.941406-7.503906 18.328124-19.332031 20.265624-32.457031 1.125-7.613281.367188-15.339844-2.085937-22.503906 8.8125 2.199218 16.960937 6.714844 25.671875 13.886718 25.28125 20.820313 33.121094 55.984376 19.074219 85.507813l-26.265625 55.210937 48.902344-36.695312c6.753906-5.066406 12.90625-10.953125 18.292968-17.492188 18.035156-21.898437 27.117188-49.535156 25.574219-77.8125-1.574219-28.890624-14.125-55.058593-35.335937-73.683593-17.835938-15.660157-35.339844-23.554688-50-27.375 4.28125-1.429688 9.1875-2.355469 14.78125-2.289063 41.589843.433594 77.558593 28.4375 87.472656 68.101563l14.824218 59.3125 14.417969-59.414063c2.53125-10.433594 3.722657-21.195312 3.542969-31.976562zm0 0" fill="#cbe8f8"/><path d="m484.5 252.277344c-1.160156-68.75-57.542969-123.964844-126.105469-123.964844-.640625 0-1.285156.003906-1.929687.015625-33.28125.5-64.488282 13.839844-87.875 37.5625-21.628906 21.9375-34.28125 50.449219-36.078125 80.960937 0 0 14.246093 25.371094 43.414062 38.703126 21.734375 9.9375 33.777344 8.296874 47.621094 11.441406 8.8125 2.199218 16.964844 6.714844 25.675781 13.886718 25.277344 20.820313 33.121094 55.984376 19.070313 85.507813l-26.265625 55.210937 48.902344-36.695312c6.753906-5.066406 12.90625-10.953125 18.292968-17.492188 18.035156-21.898437 27.117188-49.535156 25.574219-77.8125-1.574219-28.890624-14.125-55.058593-35.335937-73.683593-17.835938-15.660157-35.339844-23.554688-50-27.375 4.28125-1.429688 9.191406-2.355469 14.78125-2.289063 41.589843.433594 77.558593 28.4375 87.472656 68.101563l14.824218 59.3125 14.417969-59.414063c2.53125-10.433594 3.722657-21.195312 3.542969-31.976562zm0 0" fill="#c91341"/><path d="m198.800781 339.261719c-19.730469 0-39.09375-6.539063-57.429687-19.570313-23.722656-16.863281-37.195313-38.964844-37.757813-39.894531l25.796875-15.542969-12.898437 7.769532 12.875-7.808594c.109375.179687 11.269531 18.261718 30.125 31.414062 20.496093 14.300782 41.21875 17.253906 63.066406 8.914063-3.523437-9.800781-13.734375-25.515625-43.34375-34.667969l8.894531-28.773438c66.96875 20.695313 66.46875 70.53125 66.414063 72.644532l-.226563 8.8125-7.800781 4.117187c-15.902344 8.398438-31.929687 12.585938-47.714844 12.585938zm0 0" fill="#cbe8f8"/><path d="m188.257812 241.144531v31.957031c22.726563 9.296876 31.183594 22.714844 34.320313 31.441407-11.714844 4.472656-23.109375 5.695312-34.320313 3.660156v30.421875c3.5.417969 7.015626.636719 10.542969.636719 15.785157 0 31.8125-4.1875 47.714844-12.582031l7.800781-4.117188.226563-8.816406c.054687-2.109375.554687-51.878906-66.285157-72.601563zm0 0" fill="#9cd6f3"/></svg>