<?xml version="1.0"?>
<svg xmlns="http://www.w3.org/2000/svg" height="512px" viewBox="-76 0 476 476.96013" width="512px" class=""><g><path d="m320.707031 177c-4.199219-6.660156-4.199219-15.140625 0-21.800781 4.910157-7.738281 6.519531-17.117188 4.476563-26.046875-2.042969-8.933594-7.570313-16.679688-15.355469-21.511719-6.667969-4.199219-10.339844-11.851563-9.441406-19.679687 1.070312-9.105469-1.542969-18.261719-7.261719-25.429688s-14.0625-11.75-23.179688-12.730469c-7.835937-.84375-14.476562-6.144531-17.039062-13.601562-2.976562-8.667969-9.300781-15.785157-17.558594-19.757813-8.261718-3.976562-17.769531-4.480468-26.402344-1.402344-7.433593 2.625-15.710937.742188-21.277343-4.839843-6.441407-6.527344-15.230469-10.199219-24.402344-10.199219-9.167969 0-17.957031 3.671875-24.398437 10.199219-5.566407 5.582031-13.847657 7.464843-21.28125 4.839843-8.636719-3.082031-18.152344-2.574218-26.414063 1.410157-8.261719 3.980469-14.578125 11.113281-17.546875 19.789062-2.574219 7.4375-9.210938 12.71875-17.039062 13.5625-9.113282.980469-17.460938 5.5625-23.175782 12.730469-5.71875 7.167969-8.332031 16.324219-7.261718 25.429688.894531 7.828124-2.773438 15.480468-9.441407 19.679687-7.785156 4.832031-13.316406 12.578125-15.359375 21.511719-2.042968 8.929687-.429687 18.308594 4.480469 26.046875 4.199219 6.660156 4.199219 15.140625 0 21.800781-4.914063 7.742188-6.527344 17.128906-4.484375 26.066406 2.042969 8.941406 7.574219 16.691406 15.363281 21.535156 6.671875 4.175782 10.347657 11.820313 9.441407 19.636719-1.085938 9.109375 1.523437 18.273438 7.242187 25.445313s14.074219 11.75 23.195313 12.714844c7.832031.863281 14.460937 6.160156 17.039062 13.601562 1.753906 5.105469 4.6875 9.722656 8.5625 13.480469v160.480469c.007812 2.492187 1.335938 4.796874 3.496094 6.046874 2.15625 1.25 4.816406 1.261719 6.984375.03125l70.597656-40.597656 70.601563 40.597656c1.0625.597657 2.261718.914063 3.480468.921876 1.234375-.007813 2.449219-.339844 3.519532-.960938 2.15625-1.246094 3.480468-3.550781 3.480468-6.039062v-160.480469c3.875-3.757813 6.808594-8.375 8.558594-13.480469 2.578125-7.441406 9.210938-12.738281 17.039062-13.601562 9.125-.964844 17.476563-5.542969 23.199219-12.714844 5.71875-7.171875 8.328125-16.335938 7.242188-25.445313-.90625-7.816406 2.769531-15.460937 9.441406-19.636719 7.792969-4.835937 13.332031-12.585937 15.375-21.53125 2.046875-8.941406.425781-18.328124-4.496094-26.070312zm-224.519531 140.679688c6.996094 2.167968 14.515625 1.988281 21.398438-.519532 7.441406-2.625 15.726562-.726562 21.28125 4.878906 4.722656 4.820313 10.785156 8.109376 17.398437 9.441407v91.839843l-60.078125 34.519532zm134.160156 140.160156-60.082031-34.519532v-91.839843c6.617187-1.332031 12.679687-4.621094 17.402344-9.441407 5.550781-5.605468 13.839843-7.503906 21.277343-4.878906 6.886719 2.507813 14.402344 2.6875 21.402344.519532zm78.558594-273.320313c2.902344 4.582031 3.855469 10.132813 2.644531 15.421875-1.210937 5.285156-4.480469 9.871094-9.082031 12.738282-11.300781 7.046874-17.53125 19.972656-16 33.199218.648438 5.394532-.890625 10.820313-4.273438 15.066406-3.382812 4.25-8.328124 6.964844-13.726562 7.535157-9.683594 1.035156-18.460938 6.15625-24.121094 14.078125-2.003906 2.707031-3.582031 5.699218-4.679687 8.882812-1.632813 4.738282-4.949219 8.710938-9.320313 11.160156-.359375.199219-.722656.359376-1.082031.558594-4.894531 2.351563-10.519531 2.652344-15.640625.839844-12.542969-4.449219-26.527344-1.273438-35.917969 8.160156-2.089843 2.136719-4.632812 3.777344-7.441406 4.800782-4.519531 1.652343-9.480469 1.652343-14 0-2.804687-1.023438-5.347656-2.664063-7.4375-4.800782-6.484375-6.507812-15.296875-10.164062-24.480469-10.160156-3.902344-.007812-7.773437.667969-11.441406 2-5.117188 1.8125-10.746094 1.511719-15.640625-.839844-.359375-.199218-.71875-.359375-1.078125-.558594-4.371094-2.449218-7.691406-6.421874-9.320312-11.160156-1.101563-3.183594-2.679688-6.175781-4.679688-8.882812-5.660156-7.921875-14.4375-13.042969-24.121094-14.078125-5.398437-.570313-10.347656-3.285157-13.730468-7.535157-3.382813-4.246093-4.921876-9.671874-4.269532-15.066406 1.53125-13.226562-4.699218-26.152344-16-33.199218-4.605468-2.867188-7.875-7.453126-9.082031-12.738282-1.210937-5.289062-.257813-10.839844 2.640625-15.421875 7.121094-11.246093 7.121094-25.589843 0-36.839843-2.898438-4.582032-3.851562-10.132813-2.640625-15.421876 1.207031-5.285156 4.476563-9.871093 9.082031-12.738281 11.300782-7.046875 17.53125-19.972656 16-33.199219-.632812-5.386718.910156-10.808593 4.289063-15.050781 3.382812-4.246093 8.316406-6.960937 13.710937-7.550781 13.234375-1.433594 24.453125-10.378906 28.800782-22.957031 1.773437-5.128907 5.519531-9.335938 10.410156-11.6875 4.890625-2.351563 10.515625-2.652344 15.628906-.835938 12.550781 4.4375 26.535156 1.246094 35.921875-8.199219 3.808594-3.863281 9.011719-6.039062 14.4375-6.039062 5.429687 0 10.628906 2.175781 14.441406 6.039062 9.382813 9.445313 23.367188 12.636719 35.917969 8.199219 5.113281-1.816406 10.742188-1.515625 15.628906.835938 4.890625 2.351562 8.640625 6.558593 10.414063 11.6875 4.347656 12.578125 15.566406 21.523437 28.800781 22.957031 5.390625.589844 10.328125 3.304688 13.707031 7.550781 3.382813 4.242188 4.925781 9.664063 4.292969 15.050781-1.53125 13.226563 4.699219 26.152344 16 33.199219 4.601562 2.867188 7.871094 7.453125 9.082031 12.738281 1.210938 5.289063.257813 10.839844-2.644531 15.421876-7.121094 11.25-7.121094 25.59375 0 36.839843zm-145.640625-142.640625c-54.460937-.023437-102.582031 35.4375-118.683594 87.464844-16.101562 52.023438 3.574219 108.472656 48.523438 139.214844 18.664062 12.878906 40.519531 20.355468 63.160156 21.601562 2.320313.121094 4.640625.199219 7 .199219s4.679687-.078125 7-.199219c67.128906-3.8125 119.039063-60.335937 117.144531-127.542968-1.894531-67.207032-56.910156-120.710938-124.144531-120.738282zm40.679687 226.679688c-10.75 4.304687-22.121093 6.855468-33.679687 7.5625-2.320313.160156-4.640625.238281-7 .238281s-4.679687-.078125-7-.238281c-11.558594-.707032-22.925781-3.257813-33.679687-7.5625-49.164063-19.519532-77.535157-71.210938-67.597657-123.167969s55.378907-89.53125 108.277344-89.53125 98.339844 37.574219 108.277344 89.53125-18.429688 103.648437-67.597657 123.167969zm-12.558593-133.519532-21.839844-44.238281c-1.171875-2.398437-3.609375-3.917969-6.28125-3.917969-2.667969 0-5.105469 1.519532-6.277344 3.917969l-21.839843 44.238281-48.839844 7.082032c-2.636719.390625-4.824219 2.242187-5.648438 4.777344-.820312 2.535156-.136718 5.316406 1.765625 7.183593l35.359375 34.4375-8.359375 48.640625c-.445312 2.625.636719 5.273438 2.792969 6.835938s5.011719 1.765625 7.367188.523437l43.679687-22.960937 43.679687 22.960937c.996094.539063 2.109376.816407 3.242188.800781 1.476562.011719 2.921875-.453124 4.121094-1.320312 2.152344-1.566406 3.234375-4.214844 2.796875-6.839844l-8.359375-48.640625 35.359375-34.4375c1.90625-1.867187 2.589843-4.648437 1.769531-7.183593-.824219-2.535157-3.011719-4.386719-5.648438-4.777344zm4.960937 46c-1.644531 1.613282-2.390625 3.929688-2 6.199219l6.558594 38.28125-34.398438-18.078125c-2.027343-1.066406-4.453124-1.066406-6.480468 0l-34.402344 18.078125 6.5625-38.28125c.390625-2.269531-.355469-4.585937-2-6.199219l-27.800781-27.078124 38.441406-5.601563c2.277344-.320313 4.246094-1.761719 5.238281-3.839844l17.199219-34.800781 17.203125 34.800781c.992188 2.078125 2.957031 3.519531 5.238281 3.839844l38.441407 5.601563zm0 0" data-original="#000000" class="active-path" data-old_color="#000000" fill="#902F29"/></g> </svg>
