<?xml version="1.0" encoding="iso-8859-1"?>
<!-- Generator: Adobe Illustrator 19.0.0, SVG Export Plug-In . SVG Version: 6.00 Build 0)  -->
<svg version="1.1" id="Capa_1" xmlns="http://www.w3.org/2000/svg" xmlns:xlink="http://www.w3.org/1999/xlink" x="0px" y="0px"
	 viewBox="0 0 512 512" style="enable-background:new 0 0 512 512;" xml:space="preserve">
<g>
	<polygon style="fill:#D1D4D1;" points="512,0 512,273.655 273.655,512 0,512 0,238.345 238.345,0 291.31,0 291.31,167.724 
		459.034,0 	"/>
	<polygon style="fill:#BDC3C7;" points="273.655,238.345 273.655,512 0,512 0,238.345 52.966,238.345 52.966,459.034 
		220.69,459.034 220.69,238.345 	"/>
	<polygon style="fill:#95A5A5;" points="291.31,0 291.31,167.724 220.69,238.345 220.69,291.31 52.966,459.034 52.966,238.345 	"/>
	<polygon style="fill:#7F8C8D;" points="220.69,291.31 220.69,459.034 52.966,459.034 	"/>
	<g>
		<polygon style="fill:#E6E7E8;" points="291.31,0 52.966,238.345 0,238.345 238.345,0 		"/>
		<polygon style="fill:#E6E7E8;" points="512,0 273.655,238.345 220.69,238.345 459.034,0 		"/>
	</g>
</g>
<g>
</g>
<g>
</g>
<g>
</g>
<g>
</g>
<g>
</g>
<g>
</g>
<g>
</g>
<g>
</g>
<g>
</g>
<g>
</g>
<g>
</g>
<g>
</g>
<g>
</g>
<g>
</g>
<g>
</g>
</svg>
