<svg  xmlns="http://www.w3.org/2000/svg" xmlns:xlink="http://www.w3.org/1999/xlink" version="1.1" x="0px" y="0px" viewBox="0 0 16 20" enable-background="new 0 0 16 16" xml:space="preserve"><path fill="#fff"  d="M15.305,4.198c-0.082-0.263-0.361-0.41-0.627-0.329c-0.997,0.313-2.059,0.116-2.836-0.525c-0.001,0-0.002-0.001-0.003-0.002  c0,0-0.001,0-0.001-0.001c-0.777-0.643-1.174-1.645-1.061-2.684c0.035-0.275-0.166-0.521-0.439-0.552  c-0.275-0.032-0.523,0.167-0.552,0.441C9.719,1.151,9.791,1.745,9.973,2.297C8.527,1.801,7.107,2.005,6.304,2.979  C5.565,3.875,5.56,5.16,6.157,6.391C6.151,6.397,6.144,6.403,6.138,6.409C4.817,6.06,3.558,6.312,2.82,7.207  C1.996,8.206,2.09,9.689,2.911,11.042c-0.616-0.099-1.26-0.061-1.886,0.136c-0.264,0.08-0.411,0.362-0.328,0.625  c0.083,0.264,0.362,0.411,0.626,0.328c0.999-0.311,2.06-0.113,2.838,0.527c0.78,0.643,1.175,1.646,1.06,2.686  c-0.028,0.275,0.169,0.521,0.442,0.553c0.274,0.029,0.521-0.168,0.552-0.44c0.073-0.657-0.014-1.302-0.232-1.892  c1.484,0.536,2.977,0.352,3.787-0.631c0.734-0.893,0.719-2.215,0.103-3.466c1.345,0.366,2.646,0.13,3.38-0.763  c0.789-0.957,0.708-2.406-0.045-3.732c0.58,0.076,1.183,0.034,1.77-0.149C15.241,4.742,15.387,4.461,15.305,4.198z M9.419,3.871  c0.177-0.213,0.49-0.244,0.704-0.068l1.591,1.311c0.214,0.176,0.244,0.491,0.067,0.704c-0.176,0.213-0.49,0.244-0.702,0.068  L9.486,4.574C9.273,4.398,9.243,4.084,9.419,3.871z M5.934,8.099c0.176-0.213,0.49-0.243,0.704-0.068L8.23,9.344  c0.212,0.176,0.244,0.49,0.067,0.703c-0.175,0.213-0.49,0.244-0.704,0.068L6.002,8.803C5.789,8.626,5.758,8.313,5.934,8.099z   M6.654,12.041c-0.176,0.213-0.491,0.243-0.704,0.066l-1.592-1.312c-0.213-0.177-0.244-0.491-0.068-0.704  C4.466,9.88,4.78,9.85,4.994,10.025l1.592,1.312C6.8,11.514,6.83,11.827,6.654,12.041z M8.344,11.759  c-0.176,0.214-0.49,0.244-0.704,0.068L4.312,9.085C4.099,8.909,4.068,8.594,4.244,8.38c0.176-0.213,0.49-0.243,0.704-0.067  l3.327,2.744C8.489,11.23,8.52,11.546,8.344,11.759z M10.139,7.813C9.962,8.026,9.648,8.056,9.436,7.88L7.843,6.569  C7.629,6.393,7.6,6.078,7.775,5.865c0.176-0.213,0.49-0.244,0.704-0.068l1.591,1.312C10.285,7.285,10.314,7.599,10.139,7.813z   M11.828,7.531c-0.176,0.213-0.49,0.244-0.703,0.068L7.797,4.856C7.583,4.68,7.554,4.365,7.729,4.152  C7.905,3.939,8.22,3.909,8.433,4.084l3.329,2.743C11.975,7.003,12.005,7.318,11.828,7.531z"/></svg>