<svg xmlns:dc="http://purl.org/dc/elements/1.1/" xmlns:cc="http://creativecommons.org/ns#" xmlns:rdf="http://www.w3.org/1999/02/22-rdf-syntax-ns#" xmlns:svg="http://www.w3.org/2000/svg" xmlns="http://www.w3.org/2000/svg" xmlns:sodipodi="http://sodipodi.sourceforge.net/DTD/sodipodi-0.dtd" xmlns:inkscape="http://www.inkscape.org/namespaces/inkscape" version="1.1" x="0px" y="0px" viewBox="0 0 100 125"><g transform="translate(0,-952.36218)"><path style="color:#000000;enable-background:accumulate;" d="m 49.999999,959.36217 -5.5937,3.84375 -6.6563,-1.40625 -3.7187,5.6875 -6.6563,1.25 -1.25,6.6875 -5.6875,3.71875 1.375,6.62496 -3.8125,5.5938 3.8125,5.625 -1.375,6.62502 5.6875,3.7187 1.25,6.6875 6.6563,1.25 3.7187,5.6875 6.6563,-1.4062 5.5937,3.8125 5.5937,-3.8125 6.6563,1.4062 3.7187,-5.6875 6.6563,-1.25 1.25,-6.6875 5.687502,-3.7187 -1.375,-6.62502 3.8125,-5.625 -3.8125,-5.5938 1.375,-6.62496 -5.687502,-3.71875 -1.25,-6.6875 -6.6563,-1.25 -3.7187,-5.6875 -6.6563,1.40625 -5.5937,-3.84375 z m 0,9.03125 c 12.6908,0 23,10.30929 23,22.99996 0,12.69072 -10.3092,23.00002 -23,23.00002 -12.6907,0 -23,-10.3093 -23,-23.00002 0,-12.69067 10.3093,-22.99996 23,-22.99996 z m 0,2 c -11.6098,0 -21,9.39017 -21,20.99996 0,11.60992 9.3902,21.00002 21,21.00002 11.6099,0 21,-9.3901 21,-21.00002 0,-11.60979 -9.3901,-20.99996 -21,-20.99996 z m 11.875,9.8125 4.375,4.09376 -2.0625,2.1875 -15,16.00002 -2,2.125 -2.1875,-1.9375 -9,-8.00002 -2.25,-1.9688 4,-4.5 2.25,2 6.8125,6.0625 13,-13.875 2.0625,-2.18746 z m -38.0625,27.99998 -16.8125,26.1563 15,-3 4,14 13.6875,-22.8125 -1.5312,0.3125 c -0.7807,0.1714 -1.6502,-0.1791 -2.0938,-0.8438 l -3.25,-4.9687 -5.8125,-1.125 c -0.7837,-0.1485 -1.4455,-0.81 -1.5937,-1.5938 l -1.125,-5.8125 -0.4688,-0.3125 z m 52.375002,0 -0.4688,0.3125 -1.125002,5.8125 c -0.1485,0.7838 -0.81,1.4453 -1.5937,1.5938 l -5.8125,1.125 -3.25,4.9687 c -0.4435,0.6647 -1.3133,1.0152 -2.0938,0.8438 l -1.5312,-0.3125 13.6875,22.8125 4.000002,-14 15,3 -16.8125,-26.1563 z" fill="#fff" stroke="none" marker="none" visibility="visible" display="inline" overflow="visible"/></g></svg>